<?xml version="1.0" encoding="UTF-8"?>
<svg version="1.1" xmlns="http://www.w3.org/2000/svg" width="800" height="800">
<path d="M0 0 C0.72968994 -0.00428009 1.45937988 -0.00856018 2.21118164 -0.01296997 C4.59527624 -0.02302133 6.9791693 -0.02300806 9.36328125 -0.01953125 C10.1777774 -0.01859467 10.99227356 -0.01765808 11.83145142 -0.01669312 C64.20964179 0.11402859 64.20964179 0.11402859 83.67578125 10.16796875 C85.80015357 10.76526457 87.93415002 11.23360204 90.09106445 11.69921875 C102.13928963 14.30139622 113.03897364 18.79248859 124.29736328 23.71728516 C127.88135396 25.25624112 131.49047213 26.72555078 135.109375 28.1796875 C149.02829491 33.7994824 162.36738515 39.88429405 175.53173828 47.14355469 C185.80250738 52.78404722 196.26276615 57.98364721 206.80078125 63.10546875 C208.01447388 63.6977829 208.01447388 63.6977829 209.25268555 64.30206299 C219.26907824 69.18608707 229.35382108 73.87084019 239.55957031 78.34594727 C251.51688744 83.60268232 263.2744807 89.32486977 274.90234375 95.27148438 C276.51420358 96.08629017 278.14116129 96.87105513 279.76953125 97.65234375 C287.59379456 101.5644754 296.41659014 107.67645461 299.67578125 116.16796875 C299.67578125 117.15796875 299.67578125 118.14796875 299.67578125 119.16796875 C300.619375 118.95140625 301.56296875 118.73484375 302.53515625 118.51171875 C319.01816883 114.93708952 330.61153942 116.00421759 345.67578125 124.16796875 C347.35001808 125.49178392 349.0178934 126.82373536 350.67578125 128.16796875 C353.59945111 129.41718985 353.59945111 129.41718985 356.73828125 130.41796875 C361.39995334 132.12257125 365.15790187 134.01264421 369.17578125 136.91796875 C375.19585225 141.14230241 381.53453451 143.85563117 388.31323242 146.65991211 C394.96700855 149.41550441 401.4955014 152.36444316 407.98828125 155.48046875 C408.84091553 155.88894043 409.6935498 156.29741211 410.57202148 156.71826172 C414.34866435 158.53688064 418.1059734 160.38421887 421.83984375 162.2890625 C425.39125529 164.07296349 429.01718939 165.51689319 432.73828125 166.91796875 C438.71688156 169.23589534 444.31371783 171.96937515 449.91723633 175.07861328 C453.13826433 176.85398304 456.35285296 178.5055591 459.73046875 179.96484375 C471.64214711 185.12387314 481.5130923 192.13566088 491.67578125 200.16796875 C492.24055176 200.61350098 492.80532227 201.0590332 493.38720703 201.51806641 C495.65927329 203.32323956 497.90031897 205.15940234 500.12109375 207.02734375 C501.98591502 208.5899157 503.88106913 210.11649104 505.79296875 211.62109375 C512.53806853 216.96092164 518.18221494 222.24845916 521.57421875 230.30078125 C522.52957574 232.32922688 522.52957574 232.32922688 524.64453125 233.05859375 C527.63508575 234.69189659 528.01815083 236.77359422 529.17578125 239.91796875 C530.43056433 243.29231785 531.52467752 245.96688681 533.6953125 248.85546875 C536.47962554 253.5124657 537.05293702 258.10457243 537.86328125 263.41796875 C538.02763672 264.40410156 538.19199219 265.39023437 538.36132812 266.40625 C544.10301993 301.6932466 536.43066673 334.29064854 515.63867188 363.49511719 C495.16556187 391.43449338 468.01795213 416.60634789 434.67578125 428.16796875 C433.83869629 428.45897461 433.00161133 428.74998047 432.13916016 429.04980469 C394.6292171 441.88820524 394.6292171 441.88820524 376.67578125 434.16796875 C371.62957222 430.41633691 368.65564387 425.62398427 367.609375 419.421875 C367.72614908 415.45842528 369.53236356 412.41852368 371.67578125 409.16796875 C369.69578125 409.49796875 367.71578125 409.82796875 365.67578125 410.16796875 C364.39896291 413.99842376 364.5328716 417.60697188 364.54296875 421.59765625 C364.54201202 422.42500275 364.5410553 423.25234924 364.54006958 424.10476685 C364.53938924 425.85483883 364.54123339 427.60491334 364.54541016 429.35498047 C364.55074689 432.02577432 364.54546727 434.69639897 364.5390625 437.3671875 C364.53972357 439.06901079 364.54100534 440.77083397 364.54296875 442.47265625 C364.54094452 443.26864227 364.53892029 444.0646283 364.53683472 444.88473511 C364.55334763 448.81749984 364.90111272 452.30730723 365.67578125 456.16796875 C365.85546973 459.20929488 365.88466037 462.25090169 365.921875 465.296875 C365.95347558 467.14160673 365.98538902 468.98633313 366.01757812 470.83105469 C366.03296631 471.79426636 366.04835449 472.75747803 366.06420898 473.74987793 C366.29328595 487.66373919 366.57830952 501.54142772 367.67578125 515.41796875 C367.7631958 516.5275293 367.85061035 517.63708984 367.94067383 518.78027344 C368.10948839 520.90807014 368.27866174 523.03583842 368.44824219 525.16357422 C369.57207101 540.00245559 369.7852412 554.86940437 369.85101318 569.74472046 C369.85907687 571.46074089 369.87009719 573.17675043 369.88433838 574.89273071 C369.95072025 583.81408205 369.66988539 592.22883926 368.09692383 601.0378418 C367.15915207 608.00779638 367.76209185 615.14084914 368.10546875 622.14648438 C368.27779914 629.30994533 367.80663661 633.07864489 363.00683594 638.46459961 C361.39004646 640.23855373 361.39004646 640.23855373 361.23828125 643.39453125 C361.38265625 644.51601563 361.52703125 645.6375 361.67578125 646.79296875 C361.82294546 648.17941055 361.96720552 649.56616213 362.109375 650.953125 C362.2007373 651.75121582 362.29209961 652.54930664 362.38623047 653.37158203 C363.00119697 659.31072734 363.34140036 665.27358063 363.73828125 671.23046875 C363.82916016 672.47199707 363.92003906 673.71352539 364.01367188 674.99267578 C364.89343017 687.55899771 365.0309028 700.05030754 363.92578125 712.60546875 C363.84070313 713.5804834 363.755625 714.55549805 363.66796875 715.56005859 C362.7634237 724.85762044 361.1871089 734.18612581 357.55078125 742.84765625 C356.44054851 745.37845332 356.44054851 745.37845332 356.67578125 749.16796875 C358.65578125 749.82796875 360.63578125 750.48796875 362.67578125 751.16796875 C362.67578125 754.16796875 362.67578125 754.16796875 361.34765625 755.5859375 C360.7959375 756.10800781 360.24421875 756.63007812 359.67578125 757.16796875 C358.73382402 758.58902491 357.81875508 760.02813209 356.92578125 761.48046875 C343.26159793 781.94373845 310.61502297 787.99228416 288.13818359 792.48803711 C265.77546083 796.69376844 243.27361596 800.3126814 220.49121094 800.32910156 C218.97818382 800.33374086 217.46515785 800.33876698 215.95213318 800.34414673 C211.85679252 800.35719875 207.76146823 800.36370601 203.66611004 800.36815739 C201.08303048 800.37111047 198.49995514 800.37522003 195.91687775 800.37966156 C187.76681853 800.39334103 179.61676925 800.40299561 171.46669936 800.40686345 C163.10551522 800.41085666 154.74444627 800.4229692 146.38330078 800.44921875 C40.81786619 800.77255485 40.81786619 800.77255485 3.15356445 792.83398438 C-0.16571579 792.13556582 -3.49236583 791.48558477 -6.82226562 790.83984375 C-8.97317367 790.41013398 -11.1235908 789.97795735 -13.2734375 789.54296875 C-14.25108566 789.34912598 -15.22873383 789.1552832 -16.23600769 788.95556641 C-17.12838638 788.76526855 -18.02076508 788.5749707 -18.94018555 788.37890625 C-19.7185527 788.21696777 -20.49691986 788.0550293 -21.2988739 787.88818359 C-23.63571214 787.05720136 -24.60806198 785.91545194 -26.32421875 784.16796875 C-28.22166585 783.73521766 -30.11945962 783.30389065 -32.01953125 782.8828125 C-38.20016127 780.96576963 -43.55984298 776.70110641 -48.82421875 773.04296875 C-51.86446896 770.96644059 -54.65780437 769.60534942 -58.13671875 768.41796875 C-65.25376913 765.64899134 -72.57613752 761.29078077 -76.29101562 754.36572266 C-83.19654597 737.69705558 -83.86794749 717.63342079 -83.69921875 699.85546875 C-83.69523071 698.99187744 -83.69124268 698.12828613 -83.68713379 697.23852539 C-83.61573692 683.85130654 -83.04999957 670.51875179 -82.07421875 657.16796875 C-82.01981628 656.37860931 -81.96541382 655.58924988 -81.90936279 654.77597046 C-81.04441269 642.62477544 -80.0047382 629.13254303 -74.32421875 618.16796875 C-74.63389268 613.70413228 -76.77380763 610.02930956 -78.76171875 606.10546875 C-81.5548079 600.39504396 -83.2410035 595.2285759 -83.9375 588.8515625 C-84.24816404 586.09951 -84.24816404 586.09951 -85.3046875 583.328125 C-86.70693823 578.98168499 -87.07663135 574.60716316 -87.53515625 570.08984375 C-87.87981529 566.97602758 -88.33170867 564.14549899 -89.32421875 561.16796875 C-91.78509046 553.78535363 -91.60895834 545.70924199 -91.87841797 537.99902344 C-91.92052839 536.81819561 -91.96263882 535.63736778 -92.00602531 534.42075729 C-92.45021346 520.90481309 -92.46917827 507.39297011 -92.45703125 493.87109375 C-92.45725576 491.16876184 -92.45867872 488.46643072 -92.45993042 485.76409912 C-92.46172592 480.16417942 -92.45941071 474.56427312 -92.45458984 468.96435547 C-92.44909862 462.51158575 -92.45095521 456.05884741 -92.45641625 449.60607839 C-92.46095944 444.01056376 -92.46159361 438.41505853 -92.45897758 432.81954265 C-92.45742826 429.50032753 -92.45758497 426.18113028 -92.46051407 422.86191559 C-92.46305399 419.18298704 -92.4591835 415.50411932 -92.45361328 411.82519531 C-92.45664963 410.20136177 -92.45664963 410.20136177 -92.45974731 408.54472351 C-92.44505008 403.30371681 -92.21549401 398.33317534 -91.32421875 393.16796875 C-91.20579408 391.68796555 -91.10850526 390.20594275 -91.04296875 388.72265625 C-91.00558594 387.95566406 -90.96820313 387.18867188 -90.9296875 386.3984375 C-90.85902588 384.82032809 -90.78871681 383.24220286 -90.71875 381.6640625 C-90.68136719 380.89964844 -90.64398438 380.13523437 -90.60546875 379.34765625 C-90.57517578 378.66429199 -90.54488281 377.98092773 -90.51367188 377.27685547 C-90.32421875 375.16796875 -90.32421875 375.16796875 -89.81054688 372.77001953 C-89.27551377 369.90737753 -89.22666388 367.26502286 -89.26171875 364.35546875 C-89.27074219 363.37964844 -89.27976562 362.40382813 -89.2890625 361.3984375 C-89.30066406 360.66238281 -89.31226563 359.92632812 -89.32421875 359.16796875 C-90.08863281 358.84634766 -90.85304688 358.52472656 -91.640625 358.19335938 C-100.22570869 354.57233431 -108.78598637 350.89803974 -117.32421875 347.16796875 C-118.17902832 346.79575195 -119.03383789 346.42353516 -119.91455078 346.04003906 C-155.81811418 330.1423204 -183.7000885 297.77777216 -197.69921875 261.54296875 C-198.16352295 260.34692017 -198.16352295 260.34692017 -198.63720703 259.12670898 C-203.62874768 245.58929246 -205.9673117 232.87276554 -205.99609375 218.54296875 C-206.00902595 216.98339407 -206.02248748 215.42382371 -206.03643799 213.86425781 C-206.06018172 210.61023804 -206.06782259 207.3566391 -206.06542969 204.10253906 C-206.06510747 200.84055471 -206.09244067 197.58085168 -206.14746094 194.31933594 C-206.52923047 171.32552256 -204.18001339 151.19742737 -197.32421875 129.16796875 C-197.12578369 128.52764584 -196.92734863 127.88732292 -196.72290039 127.22759628 C-194.10839385 118.80639387 -191.34705671 110.45245267 -188.32421875 102.16796875 C-188.05931641 101.4399707 -187.79441406 100.71197266 -187.52148438 99.96191406 C-174.34827458 64.64688452 -148.13772136 46.84661134 -116.32421875 29.16796875 C-114.67231128 28.45538122 -113.01923126 27.74497954 -111.35375977 27.06469727 C-108.88943024 25.97586263 -106.54573874 24.70491541 -104.1640625 23.4453125 C-96.38949489 19.5477441 -88.31782586 16.81712472 -80.07421875 14.10546875 C-79.28785034 13.84406097 -78.50148193 13.5826532 -77.69128418 13.31332397 C-57.73888406 6.70729769 -37.98604277 2.42892489 -16.95117188 1.5625 C-16.13970703 1.52511719 -15.32824219 1.48773438 -14.4921875 1.44921875 C-13.39813599 1.4037793 -13.39813599 1.4037793 -12.28198242 1.35742188 C-8.09215316 0.95197138 -4.310491 0.00754935 0 0 Z " fill="#FEFEFE" transform="translate(232.32421875,-0.16796875)"/>
<path d="M0 0 C0.72968994 -0.00428009 1.45937988 -0.00856018 2.21118164 -0.01296997 C4.59527624 -0.02302133 6.9791693 -0.02300806 9.36328125 -0.01953125 C10.1777774 -0.01859467 10.99227356 -0.01765808 11.83145142 -0.01669312 C64.20964179 0.11402859 64.20964179 0.11402859 83.67578125 10.16796875 C85.80015357 10.76526457 87.93415002 11.23360204 90.09106445 11.69921875 C102.13928963 14.30139622 113.03897364 18.79248859 124.29736328 23.71728516 C127.88135396 25.25624112 131.49047213 26.72555078 135.109375 28.1796875 C149.02829491 33.7994824 162.36738515 39.88429405 175.53173828 47.14355469 C185.80250738 52.78404722 196.26276615 57.98364721 206.80078125 63.10546875 C208.01447388 63.6977829 208.01447388 63.6977829 209.25268555 64.30206299 C219.26907824 69.18608707 229.35382108 73.87084019 239.55957031 78.34594727 C251.51688744 83.60268232 263.2744807 89.32486977 274.90234375 95.27148438 C276.51420358 96.08629017 278.14116129 96.87105513 279.76953125 97.65234375 C287.59379456 101.5644754 296.41659014 107.67645461 299.67578125 116.16796875 C299.67578125 117.15796875 299.67578125 118.14796875 299.67578125 119.16796875 C300.619375 118.95140625 301.56296875 118.73484375 302.53515625 118.51171875 C319.01816883 114.93708952 330.61153942 116.00421759 345.67578125 124.16796875 C347.35001808 125.49178392 349.0178934 126.82373536 350.67578125 128.16796875 C353.59945111 129.41718985 353.59945111 129.41718985 356.73828125 130.41796875 C361.39995334 132.12257125 365.15790187 134.01264421 369.17578125 136.91796875 C375.19585225 141.14230241 381.53453451 143.85563117 388.31323242 146.65991211 C394.96700855 149.41550441 401.4955014 152.36444316 407.98828125 155.48046875 C408.84091553 155.88894043 409.6935498 156.29741211 410.57202148 156.71826172 C414.34866435 158.53688064 418.1059734 160.38421887 421.83984375 162.2890625 C425.39125529 164.07296349 429.01718939 165.51689319 432.73828125 166.91796875 C438.71688156 169.23589534 444.31371783 171.96937515 449.91723633 175.07861328 C453.13826433 176.85398304 456.35285296 178.5055591 459.73046875 179.96484375 C471.64214711 185.12387314 481.5130923 192.13566088 491.67578125 200.16796875 C492.24055176 200.61350098 492.80532227 201.0590332 493.38720703 201.51806641 C495.65927329 203.32323956 497.90031897 205.15940234 500.12109375 207.02734375 C501.98591502 208.5899157 503.88106913 210.11649104 505.79296875 211.62109375 C512.53806853 216.96092164 518.18221494 222.24845916 521.57421875 230.30078125 C522.52957574 232.32922688 522.52957574 232.32922688 524.64453125 233.05859375 C527.63508575 234.69189659 528.01815083 236.77359422 529.17578125 239.91796875 C530.43056433 243.29231785 531.52467752 245.96688681 533.6953125 248.85546875 C536.47962554 253.5124657 537.05293702 258.10457243 537.86328125 263.41796875 C538.02763672 264.40410156 538.19199219 265.39023437 538.36132812 266.40625 C544.10301993 301.6932466 536.43066673 334.29064854 515.63867188 363.49511719 C495.16556187 391.43449338 468.01795213 416.60634789 434.67578125 428.16796875 C433.83869629 428.45897461 433.00161133 428.74998047 432.13916016 429.04980469 C394.6292171 441.88820524 394.6292171 441.88820524 376.67578125 434.16796875 C371.62957222 430.41633691 368.65564387 425.62398427 367.609375 419.421875 C367.72614908 415.45842528 369.53236356 412.41852368 371.67578125 409.16796875 C369.69578125 409.49796875 367.71578125 409.82796875 365.67578125 410.16796875 C364.39896291 413.99842376 364.5328716 417.60697188 364.54296875 421.59765625 C364.54201202 422.42500275 364.5410553 423.25234924 364.54006958 424.10476685 C364.53938924 425.85483883 364.54123339 427.60491334 364.54541016 429.35498047 C364.55074689 432.02577432 364.54546727 434.69639897 364.5390625 437.3671875 C364.53972357 439.06901079 364.54100534 440.77083397 364.54296875 442.47265625 C364.54094452 443.26864227 364.53892029 444.0646283 364.53683472 444.88473511 C364.55334763 448.81749984 364.90111272 452.30730723 365.67578125 456.16796875 C365.85546973 459.20929488 365.88466037 462.25090169 365.921875 465.296875 C365.95347558 467.14160673 365.98538902 468.98633313 366.01757812 470.83105469 C366.03296631 471.79426636 366.04835449 472.75747803 366.06420898 473.74987793 C366.29328595 487.66373919 366.57830952 501.54142772 367.67578125 515.41796875 C367.7631958 516.5275293 367.85061035 517.63708984 367.94067383 518.78027344 C368.10948839 520.90807014 368.27866174 523.03583842 368.44824219 525.16357422 C369.57207101 540.00245559 369.7852412 554.86940437 369.85101318 569.74472046 C369.85907687 571.46074089 369.87009719 573.17675043 369.88433838 574.89273071 C369.95072025 583.81408205 369.66988539 592.22883926 368.09692383 601.0378418 C367.15915207 608.00779638 367.76209185 615.14084914 368.10546875 622.14648438 C368.27779914 629.30994533 367.80663661 633.07864489 363.00683594 638.46459961 C361.39004646 640.23855373 361.39004646 640.23855373 361.23828125 643.39453125 C361.38265625 644.51601563 361.52703125 645.6375 361.67578125 646.79296875 C361.82294546 648.17941055 361.96720552 649.56616213 362.109375 650.953125 C362.2007373 651.75121582 362.29209961 652.54930664 362.38623047 653.37158203 C363.00119697 659.31072734 363.34140036 665.27358063 363.73828125 671.23046875 C363.82916016 672.47199707 363.92003906 673.71352539 364.01367188 674.99267578 C364.89343017 687.55899771 365.0309028 700.05030754 363.92578125 712.60546875 C363.84070313 713.5804834 363.755625 714.55549805 363.66796875 715.56005859 C362.7634237 724.85762044 361.1871089 734.18612581 357.55078125 742.84765625 C356.44054851 745.37845332 356.44054851 745.37845332 356.67578125 749.16796875 C358.65578125 749.82796875 360.63578125 750.48796875 362.67578125 751.16796875 C362.67578125 754.16796875 362.67578125 754.16796875 361.34765625 755.5859375 C360.7959375 756.10800781 360.24421875 756.63007812 359.67578125 757.16796875 C358.73382402 758.58902491 357.81875508 760.02813209 356.92578125 761.48046875 C343.26159793 781.94373845 310.61502297 787.99228416 288.13818359 792.48803711 C265.77546083 796.69376844 243.27361596 800.3126814 220.49121094 800.32910156 C218.97818382 800.33374086 217.46515785 800.33876698 215.95213318 800.34414673 C211.85679252 800.35719875 207.76146823 800.36370601 203.66611004 800.36815739 C201.08303048 800.37111047 198.49995514 800.37522003 195.91687775 800.37966156 C187.76681853 800.39334103 179.61676925 800.40299561 171.46669936 800.40686345 C163.10551522 800.41085666 154.74444627 800.4229692 146.38330078 800.44921875 C40.81786619 800.77255485 40.81786619 800.77255485 3.15356445 792.83398438 C-0.16571579 792.13556582 -3.49236583 791.48558477 -6.82226562 790.83984375 C-8.97317367 790.41013398 -11.1235908 789.97795735 -13.2734375 789.54296875 C-14.25108566 789.34912598 -15.22873383 789.1552832 -16.23600769 788.95556641 C-17.12838638 788.76526855 -18.02076508 788.5749707 -18.94018555 788.37890625 C-19.7185527 788.21696777 -20.49691986 788.0550293 -21.2988739 787.88818359 C-23.63571214 787.05720136 -24.60806198 785.91545194 -26.32421875 784.16796875 C-28.22166585 783.73521766 -30.11945962 783.30389065 -32.01953125 782.8828125 C-38.20016127 780.96576963 -43.55984298 776.70110641 -48.82421875 773.04296875 C-51.86446896 770.96644059 -54.65780437 769.60534942 -58.13671875 768.41796875 C-65.25376913 765.64899134 -72.57613752 761.29078077 -76.29101562 754.36572266 C-83.19654597 737.69705558 -83.86794749 717.63342079 -83.69921875 699.85546875 C-83.69523071 698.99187744 -83.69124268 698.12828613 -83.68713379 697.23852539 C-83.61573692 683.85130654 -83.04999957 670.51875179 -82.07421875 657.16796875 C-82.01981628 656.37860931 -81.96541382 655.58924988 -81.90936279 654.77597046 C-81.04441269 642.62477544 -80.0047382 629.13254303 -74.32421875 618.16796875 C-74.63389268 613.70413228 -76.77380763 610.02930956 -78.76171875 606.10546875 C-81.5548079 600.39504396 -83.2410035 595.2285759 -83.9375 588.8515625 C-84.24816404 586.09951 -84.24816404 586.09951 -85.3046875 583.328125 C-86.70693823 578.98168499 -87.07663135 574.60716316 -87.53515625 570.08984375 C-87.87981529 566.97602758 -88.33170867 564.14549899 -89.32421875 561.16796875 C-91.78509046 553.78535363 -91.60895834 545.70924199 -91.87841797 537.99902344 C-91.92052839 536.81819561 -91.96263882 535.63736778 -92.00602531 534.42075729 C-92.45021346 520.90481309 -92.46917827 507.39297011 -92.45703125 493.87109375 C-92.45725576 491.16876184 -92.45867872 488.46643072 -92.45993042 485.76409912 C-92.46172592 480.16417942 -92.45941071 474.56427312 -92.45458984 468.96435547 C-92.44909862 462.51158575 -92.45095521 456.05884741 -92.45641625 449.60607839 C-92.46095944 444.01056376 -92.46159361 438.41505853 -92.45897758 432.81954265 C-92.45742826 429.50032753 -92.45758497 426.18113028 -92.46051407 422.86191559 C-92.46305399 419.18298704 -92.4591835 415.50411932 -92.45361328 411.82519531 C-92.45664963 410.20136177 -92.45664963 410.20136177 -92.45974731 408.54472351 C-92.44505008 403.30371681 -92.21549401 398.33317534 -91.32421875 393.16796875 C-91.20579408 391.68796555 -91.10850526 390.20594275 -91.04296875 388.72265625 C-91.00558594 387.95566406 -90.96820313 387.18867188 -90.9296875 386.3984375 C-90.85902588 384.82032809 -90.78871681 383.24220286 -90.71875 381.6640625 C-90.68136719 380.89964844 -90.64398438 380.13523437 -90.60546875 379.34765625 C-90.57517578 378.66429199 -90.54488281 377.98092773 -90.51367188 377.27685547 C-90.32421875 375.16796875 -90.32421875 375.16796875 -89.81054688 372.77001953 C-89.27551377 369.90737753 -89.22666388 367.26502286 -89.26171875 364.35546875 C-89.27074219 363.37964844 -89.27976562 362.40382813 -89.2890625 361.3984375 C-89.30066406 360.66238281 -89.31226563 359.92632812 -89.32421875 359.16796875 C-90.08863281 358.84634766 -90.85304688 358.52472656 -91.640625 358.19335938 C-100.22570869 354.57233431 -108.78598637 350.89803974 -117.32421875 347.16796875 C-118.17902832 346.79575195 -119.03383789 346.42353516 -119.91455078 346.04003906 C-155.81811418 330.1423204 -183.7000885 297.77777216 -197.69921875 261.54296875 C-198.16352295 260.34692017 -198.16352295 260.34692017 -198.63720703 259.12670898 C-203.62874768 245.58929246 -205.9673117 232.87276554 -205.99609375 218.54296875 C-206.00902595 216.98339407 -206.02248748 215.42382371 -206.03643799 213.86425781 C-206.06018172 210.61023804 -206.06782259 207.3566391 -206.06542969 204.10253906 C-206.06510747 200.84055471 -206.09244067 197.58085168 -206.14746094 194.31933594 C-206.52923047 171.32552256 -204.18001339 151.19742737 -197.32421875 129.16796875 C-197.12578369 128.52764584 -196.92734863 127.88732292 -196.72290039 127.22759628 C-194.10839385 118.80639387 -191.34705671 110.45245267 -188.32421875 102.16796875 C-188.05931641 101.4399707 -187.79441406 100.71197266 -187.52148438 99.96191406 C-174.34827458 64.64688452 -148.13772136 46.84661134 -116.32421875 29.16796875 C-114.67231128 28.45538122 -113.01923126 27.74497954 -111.35375977 27.06469727 C-108.88943024 25.97586263 -106.54573874 24.70491541 -104.1640625 23.4453125 C-96.38949489 19.5477441 -88.31782586 16.81712472 -80.07421875 14.10546875 C-79.28785034 13.84406097 -78.50148193 13.5826532 -77.69128418 13.31332397 C-57.73888406 6.70729769 -37.98604277 2.42892489 -16.95117188 1.5625 C-16.13970703 1.52511719 -15.32824219 1.48773438 -14.4921875 1.44921875 C-13.39813599 1.4037793 -13.39813599 1.4037793 -12.28198242 1.35742188 C-8.09215316 0.95197138 -4.310491 0.00754935 0 0 Z M-60.96386719 47.55322266 C-63.22524045 48.14219017 -65.49440907 48.67810409 -67.76953125 49.2109375 C-77.36611658 51.62685326 -83.44613921 55.99067648 -90.58007812 62.61474609 C-93.74013079 65.42889154 -97.13229903 67.93800452 -100.51171875 70.48046875 C-101.95726126 71.57782207 -103.40257056 72.67548266 -104.84765625 73.7734375 C-105.57952148 74.32821777 -106.31138672 74.88299805 -107.06542969 75.45458984 C-118.24706215 83.93629073 -129.23331386 92.38825142 -139.32421875 102.16796875 C-139.90187988 102.71984863 -140.47954102 103.27172852 -141.07470703 103.84033203 C-162.57596061 124.43220137 -166.85932871 145.47994656 -167.62638855 174.74472046 C-167.72256001 179.82336343 -167.75135147 184.9010137 -167.76171875 189.98046875 C-167.76771088 190.95584595 -167.773703 191.93122314 -167.77987671 192.93615723 C-167.84328481 208.42990332 -166.82937967 223.49159384 -161.63671875 238.23046875 C-161.25543823 239.33588013 -161.25543823 239.33588013 -160.86645508 240.46362305 C-154.6804313 257.77375064 -145.21301761 273.02139392 -132.32421875 286.16796875 C-131.75960937 286.75707031 -131.195 287.34617187 -130.61328125 287.953125 C-113.2492184 304.57076886 -88.23803097 312.99344413 -65.36230469 318.43847656 C-62.47257523 319.13234603 -59.59411404 319.86177684 -56.71484375 320.59765625 C-38.7853824 325.06765834 -20.89873092 327.56131956 -2.4921875 328.79296875 C-1.5550057 328.85678238 -0.61782391 328.92059601 0.34775734 328.98634338 C22.18471766 330.44009201 44.00358251 330.6965151 65.88256836 330.66894531 C70.1943757 330.66423659 74.50544732 330.6781319 78.81713867 330.70996094 C112.22239053 330.95344859 145.67211273 329.81444165 178.67578125 324.16796875 C203.91894212 322.33251678 203.91894212 322.33251678 213.42578125 330.54296875 C215.13583799 334.1340879 214.96376241 335.37557979 213.67578125 339.16796875 C208.3515768 350.94752731 199.23170058 356.08026183 187.57421875 360.765625 C174.8256808 365.46330325 161.68978627 367.81115988 148.30078125 369.85546875 C147.63356049 369.95820099 146.96633972 370.06093323 146.27890015 370.16677856 C127.53056093 373.01811548 108.90044527 374.48850989 89.94140625 374.50390625 C88.00697748 374.51037464 86.07254957 374.51710552 84.13812256 374.52407837 C80.10442861 374.53594122 76.07081948 374.53977152 72.03710938 374.53857422 C67.99851275 374.53841317 63.96037701 374.55208118 59.921875 374.57958984 C23.58266021 374.82317233 -11.97576004 372.32305523 -47.83691406 366.3581543 C-50.53150405 366.1521192 -52.71130857 366.52001626 -55.32421875 367.16796875 C-56.47558183 372.33733058 -56.50805546 377.26783815 -56.51171875 382.54296875 C-56.52396484 383.46335937 -56.53621094 384.38375 -56.54882812 385.33203125 C-56.56029235 390.68200421 -56.08704361 395.10942783 -54.32421875 400.16796875 C-53.70933594 399.96300781 -53.09445313 399.75804687 -52.4609375 399.546875 C-39.87577155 395.35181968 -39.87577155 395.35181968 -33.32421875 396.16796875 C-30.16114221 397.77826226 -28.1281407 399.18928116 -25.88671875 401.91796875 C-24.67876183 406.74979644 -25.70820061 410.85558227 -27.76171875 415.23046875 C-32.72321155 420.91803367 -39.21505948 424.55210763 -45.69921875 428.29296875 C-50.50108151 431.11981104 -53.52492328 433.77008233 -55.32421875 439.16796875 C-55.39087251 440.56236539 -55.40960074 441.9596675 -55.38671875 443.35546875 C-55.36609375 444.61359375 -55.34546875 445.87171875 -55.32421875 447.16796875 C-53.41149652 448.39071013 -53.41149652 448.39071013 -51.52416992 447.74658203 C-50.45646362 447.37122314 -50.45646362 447.37122314 -49.3671875 446.98828125 C-48.58408203 446.71886719 -47.80097656 446.44945312 -46.99414062 446.171875 C-46.17494141 445.88183594 -45.35574219 445.59179688 -44.51171875 445.29296875 C-26.61721629 439.03774762 -26.61721629 439.03774762 -17.32421875 443.16796875 C-14.10245574 445.76327784 -12.35260465 448.14791476 -11.32421875 452.16796875 C-11.41137981 456.96182687 -12.33308355 460.16058139 -15.6484375 463.71875 C-19.17851558 466.77156811 -23.27177475 468.88972909 -27.32421875 471.16796875 C-28.68534622 471.96184668 -30.0445906 472.75895849 -31.40234375 473.55859375 C-32.12526611 473.98414551 -32.84818848 474.40969727 -33.59301758 474.84814453 C-35.0797916 475.72761716 -36.56401875 476.6114097 -38.0456543 477.49951172 C-41.20642864 479.38543215 -44.30395772 481.15847065 -47.640625 482.72265625 C-50.29614893 483.99942309 -52.28269958 485.04361944 -54.32421875 487.16796875 C-55.49549022 491.25029504 -54.85683664 495.00152238 -54.32421875 499.16796875 C-54.15718221 500.90963028 -53.99616381 502.6518752 -53.83984375 504.39453125 C-53.38752095 509.32554837 -52.86890538 514.24633597 -52.32421875 519.16796875 C-46.22405869 517.06835311 -40.9779357 514.41481967 -35.63671875 510.79296875 C-29.61466066 506.74181122 -23.53760984 503.96894995 -16.75 501.44921875 C-13.16054512 500.10675444 -9.71198591 498.57540011 -6.25390625 496.9296875 C0.9411606 494.08952953 10.33820021 494.11610623 17.80078125 495.91796875 C20.97528406 497.29818736 22.20086579 498.04461837 23.67578125 501.16796875 C24.57619729 506.12025697 22.99815799 509.23919825 20.26171875 513.23046875 C15.26265181 519.33770324 8.13876872 522.68598373 1.21923828 526.18945312 C-1.97971014 527.82546035 -4.92585181 529.53953026 -7.81640625 531.6796875 C-11.3116322 534.25075865 -14.96853808 536.08083568 -18.88671875 537.91796875 C-26.7977427 541.74501901 -34.02002395 546.30466942 -41.32421875 551.16796875 C-43.98028741 552.85249607 -46.65107986 554.51062264 -49.32421875 556.16796875 C-48.8754179 563.85663595 -48.31063096 571.51516961 -47.53759766 579.17822266 C-46.41831083 590.29383038 -45.42138858 600.2823556 -48.32421875 611.16796875 C-48.66865004 615.83670632 -48.66865004 615.83670632 -47.32421875 620.16796875 C-45.3052065 620.87289707 -45.3052065 620.87289707 -42.8203125 621.3515625 C-41.38594849 621.65755371 -41.38594849 621.65755371 -39.92260742 621.96972656 C-38.87951416 622.17952148 -37.8364209 622.38931641 -36.76171875 622.60546875 C-35.68704346 622.82428711 -34.61236816 623.04310547 -33.50512695 623.26855469 C-14.82043045 626.95297602 4.70737613 629.74570004 23.80859375 629.046875 C35.39146393 628.67286843 47.93842249 630.27141741 57.67578125 637.16796875 C59.85550437 640.43755343 60.7297481 642.28651014 60.48828125 646.23046875 C59.67578125 649.16796875 59.67578125 649.16796875 58.55078125 651.48046875 C56.12118712 658.94279356 59.84257166 667.79466273 62.05078125 674.98046875 C64.48112404 682.99751054 66.71470897 691.02218512 68.67578125 699.16796875 C69.99578125 699.49796875 71.31578125 699.82796875 72.67578125 700.16796875 C73.9504983 698.60863554 75.22038339 697.04535169 76.48828125 695.48046875 C77.19597656 694.61035156 77.90367187 693.74023438 78.6328125 692.84375 C80.52972361 690.35926795 82.12119987 687.87553131 83.67578125 685.16796875 C95.93952854 664.61986119 95.93952854 664.61986119 102.05078125 655.91796875 C104.49656152 652.33208588 106.07059393 649.58627003 106.73828125 645.29296875 C107.45874892 641.15027962 108.72252594 638.94252267 112.09765625 636.3828125 C118.16170613 633.52535869 125.07899627 632.96041684 131.67578125 632.16796875 C132.40336136 632.07950684 133.13094147 631.99104492 133.88056946 631.89990234 C140.45223779 631.16911965 146.93552775 631.04776103 153.54296875 631.0625 C182.75361986 630.95645398 211.7508988 629.93102881 240.8733902 627.61071396 C243.25307593 627.42175676 245.63305251 627.23693276 248.01312256 627.05288696 C265.15906461 625.71611461 282.21024152 623.97799204 299.24609375 621.609375 C299.99822773 621.50516991 300.75036171 621.40096481 301.52528763 621.29360199 C312.36295429 619.77767118 323.08073086 617.94065007 333.67578125 615.16796875 C335.20855051 611.16630941 334.14335865 607.53485868 333.36328125 603.48046875 C331.08272576 590.33518615 330.595189 577.03461529 329.9140625 563.73339844 C329.71702076 559.90647845 329.50166469 556.08085536 329.27966309 552.25531006 C328.18323463 533.35405229 327.38885964 514.46862066 327.01733398 495.53833008 C327.00109985 494.77545685 326.98486572 494.01258362 326.96813965 493.22659302 C326.92508113 491.17611561 326.88702203 489.1255349 326.84936523 487.07495117 C326.72337736 484.23924943 326.50797989 481.52921695 326.16870117 478.72070312 C325.64514543 474.28836109 325.5307833 469.9284113 325.54296875 465.46875 C325.54153366 464.27248238 325.54153366 464.27248238 325.54006958 463.05204773 C325.53939407 461.37559937 325.54120408 459.6991483 325.54541016 458.02270508 C325.55073152 455.50400671 325.54546199 452.98548955 325.5390625 450.46679688 C325.53598675 442.14330711 325.77777704 433.93644009 326.46337891 425.63623047 C326.69372798 421.87492142 326.68981242 418.14020488 326.64453125 414.375 C326.53474917 402.8423843 327.42120568 391.35725987 328.17578125 379.85546875 C328.39240774 376.52683554 328.60734545 373.1981275 328.81774902 369.86909485 C328.94755154 367.81741219 329.0808146 365.76594398 329.21838379 363.71476746 C329.65405466 356.8581744 329.74716311 350.03748113 329.67578125 343.16796875 C328.82983398 343.12833008 327.98388672 343.08869141 327.11230469 343.04785156 C323.91319155 342.88977363 320.71534599 342.71636166 317.51757812 342.53320312 C316.14484663 342.45758113 314.77178278 342.38772605 313.3984375 342.32421875 C302.10043162 341.79565707 289.79013302 340.92292724 281.67578125 332.16796875 C279.77767034 329.03195942 279.66899182 327.35807273 279.80078125 323.66796875 C280.78799314 319.71912118 281.7297773 317.95891986 284.67578125 315.16796875 C289.71954478 312.33085176 294.60740365 311.61395298 300.2890625 310.765625 C305.35060176 309.87241219 310.24796583 308.47721013 315.1953125 307.10546875 C317.97812188 306.35589047 320.72525405 305.7202533 323.55078125 305.16796875 C331.36920187 303.45173008 337.0878052 300.310244 342.75390625 294.65625 C346.26779738 291.93512699 349.96023572 292.07580908 354.23828125 292.29296875 C363.96528333 292.35027068 372.89452818 288.90383401 381.80517578 285.32568359 C390.51467642 281.88766433 398.51793645 280.85959635 407.86328125 280.98046875 C408.82169922 280.98111328 409.78011719 280.98175781 410.76757812 280.98242188 C415.50975734 281.01191712 420.01417451 281.1886396 424.67578125 282.16796875 C423.97494783 292.91408126 418.36467711 300.44634117 410.640625 307.625 C403.42741543 313.81182402 395.23493791 318.14529044 386.67578125 322.16796875 C385.62003906 322.67457031 384.56429687 323.18117188 383.4765625 323.703125 C378.56110205 326.02669341 373.76532997 328.2328436 368.55078125 329.79296875 C365.77685985 330.65981919 364.72675494 331.11999351 362.55078125 333.16796875 C361.34947533 335.30565853 361.34947533 335.30565853 362.67578125 338.16796875 C367.97054845 338.66747509 371.10647398 338.15769592 375.86328125 335.73046875 C383.89947319 331.80711291 393.13337313 330.92543052 401.796875 333.3984375 C405.21391755 334.7979331 406.69113815 336.03095223 408.67578125 339.16796875 C409.4353539 344.07200573 409.35609324 348.48509171 407.48828125 353.10546875 C403.38403752 357.77581506 398.48111247 360.52459902 392.98828125 363.23046875 C392.27712158 363.58262451 391.56596191 363.93478027 390.83325195 364.29760742 C385.565186 366.85176683 380.37536122 368.79671138 374.67578125 370.16796875 C372.67348719 370.65870137 370.67348015 371.15885273 368.67578125 371.66796875 C367.76828125 371.88453125 366.86078125 372.10109375 365.92578125 372.32421875 C363.33527497 373.04573139 363.33527497 373.04573139 361.67578125 376.16796875 C362.8461443 377.56084681 362.8461443 377.56084681 366.11328125 377.35546875 C369.46036562 377.33147531 372.47696737 376.84350308 375.73828125 376.10546875 C384.18926116 374.33037708 390.44397916 376.79348706 397.67578125 381.16796875 C400.22146964 383.28844325 400.62563157 383.69656177 400.98828125 387.10546875 C400.6865036 390.06288972 400.08304938 391.61729527 398.67578125 394.16796875 C398.67578125 395.15796875 398.67578125 396.14796875 398.67578125 397.16796875 C403.77513717 396.5969984 408.31417138 395.45141918 413.11328125 393.60546875 C413.79994873 393.3429834 414.48661621 393.08049805 415.1940918 392.81005859 C432.32006054 386.09529147 446.2418888 376.63207595 460.05712891 364.578125 C461.11501053 363.65650747 462.17703398 362.739617 463.24365234 361.828125 C478.7464997 348.55544273 490.14691722 332.18965704 497.67578125 313.16796875 C498.06854248 312.26691406 498.06854248 312.26691406 498.46923828 311.34765625 C501.2584302 304.25208365 501.05046728 297.32868063 500.92578125 289.79296875 C500.920625 288.52324219 500.91546875 287.25351562 500.91015625 285.9453125 C500.98317657 279.45257035 500.98317657 279.45257035 499.67578125 273.16796875 C499.67578125 271.84796875 499.67578125 270.52796875 499.67578125 269.16796875 C499.01578125 269.16796875 498.35578125 269.16796875 497.67578125 269.16796875 C497.62421875 268.56210937 497.57265625 267.95625 497.51953125 267.33203125 C496.43788928 259.34263031 493.09342938 254.96195134 487.67578125 249.16796875 C487.13646973 248.57709473 486.5971582 247.9862207 486.04150391 247.37744141 C462.54603052 221.82378256 431.53415922 208.17532685 400.21191406 194.59350586 C389.88421195 190.1059702 379.69770874 185.30181716 369.67578125 180.16796875 C368.74233887 179.70777344 368.74233887 179.70777344 367.79003906 179.23828125 C354.40251643 172.63451487 342.16436023 164.73037735 329.85302734 156.31298828 C326.55502662 154.08644499 323.22574777 151.91584902 319.8828125 149.7578125 C318.78090576 149.04125488 317.67899902 148.32469727 316.54370117 147.58642578 C314.42357318 146.2096115 312.29763234 144.84169652 310.1652832 143.48388672 C309.21226318 142.8601416 308.25924316 142.23639648 307.27734375 141.59375 C306.43510254 141.05145752 305.59286133 140.50916504 304.72509766 139.95043945 C300.281429 136.08539003 300.23669977 130.68366752 299.67578125 125.16796875 C298.68578125 125.16796875 297.69578125 125.16796875 296.67578125 125.16796875 C296.67578125 125.82796875 296.67578125 126.48796875 296.67578125 127.16796875 C295.89203125 127.47734375 295.10828125 127.78671875 294.30078125 128.10546875 C291.75247997 129.09671913 291.75247997 129.09671913 289.67578125 130.16796875 C274.80225866 131.55292943 260.64603954 129.68669298 246.83984375 124 C244.4064268 123.06440829 241.93115815 122.30577337 239.44238281 121.5324707 C232.34079476 119.29925017 226.14660544 116.40378477 219.64453125 112.71875 C217.00772934 111.34136795 214.72581974 110.46995786 211.86328125 109.73046875 C204.96054114 107.92827552 198.776989 104.37447681 192.47949219 101.10229492 C188.66120519 99.12441399 184.80210801 97.22918502 180.94140625 95.3359375 C168.88541624 89.40118583 168.88541624 89.40118583 163.61328125 86.04296875 C158.51540488 82.87817973 153.05462171 80.82197522 147.484375 78.66796875 C139.92226994 75.72959451 132.64581546 72.27848387 125.5703125 68.31640625 C100.41229378 54.52268112 71.72783868 46.49669675 43.67578125 41.16796875 C42.80703369 40.98250488 41.93828613 40.79704102 41.04321289 40.60595703 C31.36668813 38.70972694 21.68529771 38.77220501 11.86328125 38.79296875 C10.94148071 38.79318024 10.01968018 38.79339172 9.06994629 38.79360962 C-14.70640219 38.84777045 -37.91503922 41.49135345 -60.96386719 47.55322266 Z " fill="#000000" transform="translate(232.32421875,-0.16796875)"/>
<path d="M0 0 C0.98871094 0.19190918 1.97742188 0.38381836 2.99609375 0.58154297 C4.03894531 0.79311035 5.08179688 1.00467773 6.15625 1.22265625 C7.16816406 1.42777832 8.18007812 1.63290039 9.22265625 1.84423828 C13.43033774 2.70532354 17.63699605 3.5706752 21.83984375 4.45507812 C33.32307 6.80424246 44.64730382 7.40052918 56.34375 7.78515625 C58.2009668 7.84993164 58.2009668 7.84993164 60.09570312 7.91601562 C63.11580262 8.02096117 66.13596816 8.12312169 69.15625 8.22265625 C71.4719766 15.17358438 73.44596687 22.07879936 74.90234375 29.25390625 C75.04249908 29.94419922 75.18265442 30.63449219 75.32705688 31.34570312 C75.89659769 34.18101247 76.45695836 37.0179818 77.00805664 39.85693359 C80.11252375 55.74203421 84.13556223 72.44463523 98.15625 82.22265625 C102.83026841 84.79336638 107.28691472 84.99762202 112.44140625 83.60546875 C131.50474641 76.77771142 145.43731617 58.45855623 154.96875 41.34765625 C155.4750293 40.45087158 155.98130859 39.55408691 156.50292969 38.63012695 C161.57410233 29.59244841 166.38904858 20.42316371 171.15625 11.22265625 C171.80410965 11.25196732 172.4519693 11.28127838 173.11946106 11.31147766 C190.0324201 12.06020264 206.9146323 12.42765984 223.84375 12.41015625 C225.62881958 12.40875137 225.62881958 12.40875137 227.44995117 12.40731812 C272.48064468 12.33120715 317.55440654 9.39942341 361.94775391 1.51049805 C364.37170509 1.19457516 366.71449916 1.17453101 369.15625 1.22265625 C372.47018832 13.15353149 371.25450929 26.53269109 371.02416992 38.77734375 C370.9691108 41.95185385 370.94036846 45.12593476 370.91210938 48.30078125 C370.75225782 59.12335466 369.91396724 68.97807319 367.0847168 79.42675781 C365.72479316 84.9866034 365.35471791 90.51670371 365.15625 96.22265625 C339.26841738 100.37636316 313.41999277 103.74771969 287.29931641 106.03125 C284.21865749 106.30639657 281.14096222 106.61155252 278.0625 106.91015625 C253.18452148 109.13186185 228.10649442 108.40746511 203.15625 108.22265625 C202.86512329 106.77197754 202.86512329 106.77197754 202.56811523 105.29199219 C202.17668335 103.39368652 202.17668335 103.39368652 201.77734375 101.45703125 C201.52138428 100.20116211 201.2654248 98.94529297 201.00170898 97.65136719 C199.81599441 92.84276901 198.35558523 89.95070536 194.40625 86.84765625 C190.11770665 85.65639421 185.89882199 85.37491852 181.84375 87.34765625 C176.33789709 93.46527059 176.49462537 100.35834586 176.15625 108.22265625 C175.16625 108.22265625 174.17625 108.22265625 173.15625 108.22265625 C173.32125 106.94390625 173.48625 105.66515625 173.65625 104.34765625 C174.51618038 96.29213191 175.32198236 88.51268787 171.15625 81.22265625 C168.18930641 77.83186357 166.72711738 77.28608596 162.21875 76.78515625 C158.24908306 77.02438288 155.45560842 77.89810827 152.15625 80.22265625 C147.37256412 86.41240954 147.00183336 93.049168 146.59375 100.53515625 C146.52897461 101.64600586 146.52897461 101.64600586 146.46289062 102.77929688 C146.35754568 104.59357089 146.25646684 106.40809175 146.15625 108.22265625 C125.63223577 108.5173244 105.17909162 108.69888379 84.71875 106.84765625 C83.99278625 106.78444183 83.26682251 106.72122742 82.51885986 106.65609741 C70.73030082 105.6053568 70.73030082 105.6053568 67.15625 103.22265625 C67.39746582 101.52314819 67.39746582 101.52314819 67.64355469 99.78930664 C68.20999976 95.23632012 68.33470889 90.74037627 68.359375 86.15625 C68.36507507 85.31852554 68.37077515 84.48080109 68.37664795 83.61769104 C68.38603232 81.85882812 68.39260555 80.09994813 68.39648438 78.34106445 C68.40623631 75.66391459 68.43733994 72.98751874 68.46875 70.31054688 C68.47527739 68.59245242 68.4805289 66.87435255 68.484375 65.15625 C68.5028952 63.96847206 68.5028952 63.96847206 68.52178955 62.75669861 C68.50092762 57.51212835 67.59728804 53.88605914 65.15625 49.22265625 C62.62999947 47.05729865 61.19653092 47.22265625 57.84375 47.22265625 C52.37611039 48.70540597 49.018491 51.40037796 45.8984375 56.12890625 C39.20073422 69.42508758 40.59552632 86.73368027 40.15625 101.22265625 C37.8428141 100.74802875 35.53051981 100.26783346 33.21875 99.78515625 C31.93097656 99.51832031 30.64320313 99.25148438 29.31640625 98.9765625 C26.15625 98.22265625 26.15625 98.22265625 25.15625 97.22265625 C25.05478275 94.35649375 25.01659274 91.5150136 25.0234375 88.6484375 C25.02200241 87.3353083 25.02200241 87.3353083 25.02053833 85.99565125 C25.01985554 84.13015675 25.02171665 82.2646599 25.02587891 80.39916992 C25.03114297 77.59222789 25.02598113 74.78545207 25.01953125 71.97851562 C25.01781145 62.89026157 25.16153259 53.93752098 26.10058594 44.88989258 C26.35194566 41.96644136 26.35194566 41.96644136 24.53125 38.59765625 C20.01075176 34.06183504 20.01075176 34.06183504 14.34375 31.22265625 C9.99105887 31.22265625 6.5435318 32.45649649 3.15625 35.22265625 C-2.02539263 43.71276554 -2.17889385 54.50348473 -1.84375 64.22265625 C-2.83375 64.22265625 -3.82375 64.22265625 -4.84375 64.22265625 C-4.8592112 63.29304329 -4.8592112 63.29304329 -4.87498474 62.34465027 C-4.98301606 55.90470761 -5.09761691 49.46490582 -5.21606445 43.02514648 C-5.25942409 40.62055402 -5.3010984 38.21593056 -5.34106445 35.8112793 C-5.39874189 32.35846609 -5.46244385 28.90580906 -5.52734375 25.453125 C-5.54405624 24.37491989 -5.56076874 23.29671478 -5.57798767 22.18583679 C-5.59793289 21.18502579 -5.61787811 20.18421478 -5.63842773 19.15307617 C-5.65397202 18.27149338 -5.6695163 17.38991058 -5.68553162 16.48161316 C-5.7612252 14.05494545 -5.7612252 14.05494545 -6.84375 11.22265625 C-6.9122995 9.32794809 -6.92855372 7.43097285 -6.90625 5.53515625 C-6.89722656 4.54128906 -6.88820312 3.54742188 -6.87890625 2.5234375 C-6.86730469 1.76417969 -6.85570312 1.00492188 -6.84375 0.22265625 C-4.18625435 -1.10609158 -2.90041301 -0.57062933 0 0 Z " fill="#FEFEFE" transform="translate(189.84375,652.77734375)"/>
<path d="M0 0 C2.26080092 3.95640161 2.46422956 7.51244754 2 12 C-2.02400496 21.01377111 -9.69721022 26.86941888 -17.5625 32.5 C-18.34608887 33.06098389 -19.12967773 33.62196777 -19.93701172 34.19995117 C-37.021439 46.19307331 -37.021439 46.19307331 -45.5 46.625 C-51.70457079 45.51704093 -56.13031165 43.04232119 -60 38 C-60.30429131 34.57672276 -59.56508988 32.78219525 -57.56640625 30.015625 C-54.07866448 25.88315592 -50.33703961 22.22756436 -46 19 C-45.34 19 -44.68 19 -44 19 C-43.81824219 18.44183594 -43.63648438 17.88367188 -43.44921875 17.30859375 C-41.28920168 13.86770402 -38.20610986 12.20358912 -34.8125 10.0625 C-33.50574682 9.22123701 -32.19975401 8.37879174 -30.89453125 7.53515625 C-29.92737183 6.91411011 -29.92737183 6.91411011 -28.94067383 6.28051758 C-26.98470308 4.98990661 -25.08442915 3.64125305 -23.1875 2.265625 C-16.68970214 -2.35290779 -7.17140592 -4.53346586 0 0 Z " fill="#000000" transform="translate(428,512)"/>
<path d="M0 0 C0.63763224 6.12126953 -0.6947502 10.79962056 -4 16 C-9.2772307 22.13023135 -15.75074524 25.6531573 -22.875 29.28125 C-25.7185691 30.845213 -28.02202401 32.48537307 -30.5 34.5625 C-38.05546499 40.7065045 -49.01097264 46.3543405 -59 46 C-62 43.875 -62 43.875 -64 41 C-64.928125 40.0409375 -64.928125 40.0409375 -65.875 39.0625 C-67 37 -67 37 -66.9375 34.125 C-64.48263267 25.9421089 -58.68574202 21.64266967 -51.52734375 17.60546875 C-49.70635679 16.63195142 -47.88193746 15.66483551 -46.0546875 14.703125 C-42.58727661 12.76988824 -39.30900997 10.62624642 -36 8.4375 C-28.46260424 3.51468001 -8.81678241 -8.81678241 0 0 Z " fill="#000000" transform="translate(370,515)"/>
</svg>
