<svg width="16" height="16" viewBox="0 0 16 16" fill="none" xmlns="http://www.w3.org/2000/svg">
<path d="M1.33334 6.33344C1.33335 5.59158 1.5584 4.86716 1.97876 4.25588C2.39912 3.6446 2.99501 3.17521 3.68774 2.90971C4.38047 2.6442 5.13744 2.59507 5.85868 2.7688C6.57991 2.94254 7.23149 3.33096 7.72734 3.88278C7.76226 3.92012 7.80448 3.94989 7.85139 3.97024C7.89829 3.99059 7.94887 4.0011 8 4.0011C8.05113 4.0011 8.10172 3.99059 8.14862 3.97024C8.19552 3.94989 8.23775 3.92012 8.27267 3.88278C8.76696 3.32737 9.41868 2.93569 10.1411 2.75984C10.8635 2.584 11.6223 2.63234 12.3166 2.89843C13.0108 3.16452 13.6076 3.63574 14.0274 4.24938C14.4472 4.86301 14.6702 5.58995 14.6667 6.33344C14.6667 7.86011 13.6667 9.00011 12.6667 10.0001L9.00534 13.5421C8.88111 13.6848 8.72796 13.7994 8.55603 13.8783C8.38411 13.9572 8.19736 13.9987 8.0082 13.9999C7.81903 14.0011 7.63177 13.962 7.45886 13.8853C7.28595 13.8085 7.13135 13.6959 7.00534 13.5548L3.33334 10.0001C2.33334 9.00011 1.33334 7.86678 1.33334 6.33344Z" stroke="#DA533E" stroke-width="1.33333" stroke-linecap="round" stroke-linejoin="round"/>
</svg>
