<?xml version="1.0" encoding="UTF-8"?>
<svg version="1.1" xmlns="http://www.w3.org/2000/svg" width="512" height="512">
<path d="M0 0 C2.78558641 3.56282742 3.04159318 7.04335097 3.60546875 11.453125 C3.72575439 12.29657471 3.84604004 13.14002441 3.9699707 14.0090332 C4.86476997 20.46873158 5.54105329 26.9415855 5.91796875 33.453125 C7.12453125 33.24816406 8.33109375 33.04320312 9.57421875 32.83203125 C11.18878719 32.5598075 12.80337137 32.28767707 14.41796875 32.015625 C15.20945312 31.88091797 16.0009375 31.74621094 16.81640625 31.60742188 C17.60273438 31.47529297 18.3890625 31.34316406 19.19921875 31.20703125 C19.91142578 31.08658447 20.62363281 30.9661377 21.35742188 30.84204102 C27.93590177 29.8428497 34.2817772 29.28704245 40.9296875 29.25 C41.7719841 29.24298569 42.6142807 29.23597137 43.48210144 29.22874451 C46.18994534 29.21131153 48.89757078 29.20489119 51.60546875 29.203125 C52.52869934 29.20245026 53.45192993 29.20177551 54.40313721 29.20108032 C67.78026668 29.21664561 80.81424407 29.5005381 93.91796875 32.453125 C94.7063916 32.62473145 95.49481445 32.79633789 96.30712891 32.97314453 C127.58505963 39.96894795 155.51152719 54.80757786 178.50146484 77.08349609 C179.78022517 78.31993963 181.07661367 79.5380882 182.375 80.75390625 C188.64177546 86.75727959 193.84023818 93.44962974 198.91796875 100.453125 C199.32660156 101.00677734 199.73523438 101.56042969 200.15625 102.13085938 C214.99754963 122.41396886 223.61778277 145.52215149 228.66796875 169.953125 C228.86696777 170.9126709 229.0659668 171.8722168 229.27099609 172.86083984 C233.06283715 192.43194739 233.21087185 211.90534478 233.11520386 231.75631714 C233.10536363 234.04002159 233.09959877 236.32370078 233.09521484 238.60742188 C233.05332418 260.4240537 232.80677596 282.2318259 232.26977539 304.04248047 C232.06075419 312.60280245 231.87374412 321.15166206 231.95703125 329.71484375 C231.96293274 330.41058502 231.96883423 331.10632629 231.97491455 331.82315063 C232.00422109 334.9091291 232.0519779 337.99298282 232.13085938 341.078125 C232.23618433 348.35928472 231.797445 353.25773499 226.74609375 358.86328125 C223.00835591 360.96446813 219.83989688 361.00591796 215.66796875 360.890625 C214.78955322 360.87813721 213.9111377 360.86564941 213.00610352 360.8527832 C195.95289552 360.44272248 178.90960415 358.88174162 161.91796875 357.453125 C160.77853821 357.35904358 160.77853821 357.35904358 159.61608887 357.26306152 C154.98418418 356.87970488 150.35697558 356.46037968 145.73046875 356.015625 C144.04135376 355.86903442 144.04135376 355.86903442 142.31811523 355.71948242 C136.5933244 355.12526137 132.2427227 354.58474799 127.91796875 350.453125 C124.57968976 344.82816019 124.41426576 339.70615374 124.48046875 333.265625 C124.4858667 332.21391113 124.49126465 331.16219727 124.49682617 330.07861328 C124.80915651 312.3584959 126.89892376 294.68187925 128.6583252 277.06048584 C129.12082478 272.41602894 129.57228277 267.77049742 130.02293396 263.12487793 C130.33242182 259.93543553 130.64514703 256.74642115 130.96606445 253.55810547 C133.35416738 229.53933417 135.17197585 204.36562175 130.91796875 180.453125 C130.79969727 179.78216797 130.68142578 179.11121094 130.55957031 178.41992188 C127.63506134 162.8374237 121.22704314 147.52868079 108.29296875 137.828125 C90.72284782 126.05296865 67.47816932 123.89028948 46.8828125 126.94921875 C33.77553507 129.71440124 23.84035971 135.58839586 16.35546875 146.703125 C13.02743978 151.93318528 10.55597704 157.28247914 8.54296875 163.140625 C8.31665771 163.78483398 8.09034668 164.42904297 7.85717773 165.09277344 C3.36785922 179.31428713 2.41792145 194.31848895 2.52685547 209.12792969 C2.54270753 211.66137741 2.52701235 214.19316741 2.5078125 216.7265625 C2.46048446 245.91961241 7.30028623 274.62670061 12.06231689 303.33007812 C12.83617201 307.99967562 13.601562 312.67050782 14.35565948 317.34333801 C14.70577503 319.49123986 15.06809155 321.63683714 15.43109131 323.78259277 C15.64171204 325.08345825 15.85233276 326.38432373 16.06933594 327.72460938 C16.25792175 328.85910522 16.44650757 329.99360107 16.64080811 331.16247559 C17.0799046 336.37574329 16.6731356 340.22597887 13.91796875 344.703125 C9.84794547 349.02624728 4.50641124 350.23867818 -1.27200317 350.71740723 C-5.03515557 350.81623174 -8.79108924 350.81761378 -12.5546875 350.78125 C-13.96406348 350.77817961 -15.37344253 350.77631325 -16.78282166 350.77557373 C-19.735623 350.77098828 -22.68814904 350.75665532 -25.64086914 350.734375 C-29.34851904 350.70648058 -33.05595258 350.69530777 -36.76369667 350.69052887 C-50.45310494 350.67157394 -64.14488792 350.55570835 -77.828125 350.125 C-78.79194595 350.10350891 -79.75576691 350.08201782 -80.74879456 350.05987549 C-87.18183247 349.81163004 -91.7886527 348.87046996 -96.39453125 344.015625 C-99.13584773 339.85288515 -99.21671149 336.28851161 -99.28735352 331.35986328 C-99.30728867 330.11984055 -99.32722382 328.87981781 -99.34776306 327.60221863 C-99.36478834 326.24262659 -99.38167592 324.88303282 -99.3984375 323.5234375 C-99.41916628 322.10984279 -99.44025593 320.69625333 -99.46168518 319.28266907 C-99.51756889 315.49986684 -99.56708595 311.71700842 -99.61466217 307.93409348 C-99.64464367 305.5692576 -99.67597508 303.20444318 -99.70770264 300.83963013 C-99.84750293 290.37761608 -99.97169727 279.91549044 -100.08203125 269.453125 C-100.09276672 268.43688049 -100.1035022 267.42063599 -100.11456299 266.37359619 C-100.23143901 254.73193839 -100.19079511 243.09470975 -100.08203125 231.453125 C-100.0655957 229.60699615 -100.0655957 229.60699615 -100.04882812 227.72357178 C-99.53076407 170.01649292 -98.265271 112.37591921 -95.2128334 54.74171829 C-95.08344486 52.29238471 -94.95584851 49.84296253 -94.82846069 47.39352417 C-94.62684235 43.53647942 -94.4173768 39.67993286 -94.20181847 35.82364273 C-94.12359208 34.41078974 -94.04735319 32.99782491 -93.97336769 31.5847435 C-92.63591764 6.2184682 -92.63591764 6.2184682 -87.08203125 0.453125 C-83.87189473 -1.73692767 -80.96113606 -1.87199477 -77.12695312 -2.04931641 C-75.32357483 -2.1391832 -75.32357483 -2.1391832 -73.48376465 -2.23086548 C-72.18588013 -2.28616425 -70.88799561 -2.34146301 -69.55078125 -2.3984375 C-68.19515706 -2.46213354 -66.83956644 -2.52654764 -65.48400879 -2.59164429 C-62.63962516 -2.72640821 -59.79505934 -2.85528832 -56.95019531 -2.97949219 C-53.33697615 -3.13730422 -49.72432351 -3.30518942 -46.11174774 -3.47704506 C-42.63326024 -3.64201891 -39.15452974 -3.80157954 -35.67578125 -3.9609375 C-34.39409058 -4.02028473 -33.1123999 -4.07963196 -31.79187012 -4.14077759 C-7.0289261 -5.22224153 -7.0289261 -5.22224153 0 0 Z M-39.203125 23.890625 C-40.32026634 23.95721313 -40.32026634 23.95721313 -41.4599762 24.02514648 C-43.81328284 24.1658611 -46.16640401 24.30944466 -48.51953125 24.453125 C-50.1256396 24.54966969 -51.73175931 24.64602568 -53.33789062 24.7421875 C-57.25273877 24.97698606 -61.16742335 25.21435583 -65.08203125 25.453125 C-65.57819732 34.61310563 -66.06517752 43.7735294 -66.54301262 52.93448448 C-66.76558505 57.19709757 -66.99036628 61.45955772 -67.22216797 65.72167969 C-70.4083252 124.44786792 -71.40564486 183.10101369 -71.2826283 241.90115702 C-71.26899898 248.74829702 -71.26693687 255.59540562 -71.26757735 262.44255733 C-71.2682497 270.75974912 -71.26137677 279.07692181 -71.25213075 287.39410782 C-71.25000871 289.75593387 -71.24929114 292.11775683 -71.24889183 294.47958374 C-71.24789306 298.14442691 -71.24183563 301.80922722 -71.23172569 305.47405624 C-71.2274007 307.45544751 -71.22797307 309.43684755 -71.22866821 311.41824341 C-71.22440323 312.58773529 -71.22013824 313.75722717 -71.21574402 314.9621582 C-71.21406817 315.98074417 -71.21239233 316.99933014 -71.2106657 318.04878235 C-71.24158654 320.46633994 -71.24158654 320.46633994 -70.08203125 322.453125 C-51.43006172 323.76532386 -32.76763936 323.55238657 -14.08203125 323.453125 C-14.63407027 313.52738371 -15.75594197 303.7735674 -17.12368774 293.93453979 C-18.15553126 286.44694369 -19.11415321 278.94920751 -20.08203125 271.453125 C-20.17200378 270.76246948 -20.26197632 270.07181396 -20.35467529 269.36022949 C-22.61673119 251.89487689 -23.36199482 234.67170635 -23.39453125 217.078125 C-23.40004501 215.64978836 -23.40004501 215.64978836 -23.40567017 214.19259644 C-23.43660342 198.89750855 -22.5604108 183.88519045 -19.33203125 168.890625 C-19.16429199 168.10816406 -18.99655273 167.32570313 -18.82373047 166.51953125 C-14.10988466 145.69267364 -3.98268441 123.69751528 14.4765625 111.8046875 C38.54648339 98.04046569 65.71211283 96.28280861 92.27978516 103.05517578 C114.05608595 109.10792647 131.44092504 120.71626056 142.91796875 140.453125 C152.77456944 159.70326461 156.0148557 181.32089959 156.12109375 202.7421875 C156.13127533 204.1834626 156.13127533 204.1834626 156.1416626 205.65385437 C156.15867458 208.79531115 156.16488055 211.93662496 156.16796875 215.078125 C156.17030518 216.16781586 156.1726416 217.25750671 156.17504883 218.38021851 C156.1890582 235.92201799 155.42976445 253.32666454 154.2038269 270.82156372 C152.86039359 290.05938174 152.56753528 309.17569023 152.91796875 328.453125 C156.02793904 330.00811015 159.3980331 329.93638209 162.8203125 330.20703125 C163.61264786 330.27220444 164.40498322 330.33737762 165.22132874 330.40452576 C166.90495414 330.54184422 168.58875358 330.67704269 170.27270508 330.81030273 C172.81452712 331.01237026 175.35548236 331.22344609 177.89648438 331.43554688 C186.24897751 332.1167097 194.52943997 332.69731365 202.91796875 332.453125 C202.93255127 331.36636475 202.94713379 330.27960449 202.9621582 329.15991211 C203.25511928 308.67069995 203.80677477 288.25175805 205.27175903 267.80978394 C206.45156117 251.30825255 207.23825548 234.87419234 207.29296875 218.328125 C207.30434372 217.03888626 207.30434372 217.03888626 207.31594849 215.72360229 C207.64731059 169.9242703 191.52723197 132.24404292 159.91796875 99.453125 C159.25539063 98.73898438 158.5928125 98.02484375 157.91015625 97.2890625 C136.37383145 74.67141596 106.33228043 62.14084824 75.91796875 57.453125 C74.09072266 57.16501953 74.09072266 57.16501953 72.2265625 56.87109375 C49.45705352 54.19083905 25.01014224 56.32485527 2.93652344 62.27050781 C-2.15634204 63.56413027 -6.94787832 63.77623527 -12.08203125 62.453125 C-14.95703125 60.140625 -14.95703125 60.140625 -17.08203125 57.453125 C-17.65953125 56.7725 -18.23703125 56.091875 -18.83203125 55.390625 C-21.13196858 51.82572214 -21.27286956 48.04476377 -21.58203125 43.8828125 C-21.66453125 42.82191406 -21.74703125 41.76101562 -21.83203125 40.66796875 C-21.99927946 38.4336372 -22.16594211 36.19926175 -22.33203125 33.96484375 C-22.41453125 32.90652344 -22.49703125 31.84820312 -22.58203125 30.7578125 C-22.6903125 29.3035083 -22.6903125 29.3035083 -22.80078125 27.81982422 C-22.94836495 25.43834009 -22.94836495 25.43834009 -24.08203125 23.453125 C-29.13940598 23.40691255 -34.15461074 23.57849022 -39.203125 23.890625 Z " fill="#000000" transform="translate(279.08203125,121.546875)"/>
<path d="M0 0 C1.1987677 0.00696396 1.1987677 0.00696396 2.42175293 0.0140686 C5.05034357 0.03237362 7.67846601 0.0659109 10.30688477 0.10083008 C12.14241563 0.11940453 13.97795151 0.13748886 15.81349182 0.15510559 C19.65588917 0.19454817 23.49809234 0.24189167 27.34033203 0.29443359 C32.25388078 0.36071476 37.16733257 0.40436707 42.0811758 0.4416914 C45.87065633 0.47350232 49.65988488 0.51889138 53.44917488 0.56817055 C55.26033777 0.58981636 57.07156092 0.60692874 58.88281059 0.61934471 C61.41967528 0.63847247 63.95561992 0.67629845 66.4921875 0.71875 C67.2337056 0.720457 67.97522369 0.722164 68.73921204 0.72392273 C73.85635446 0.83681658 77.32876012 1.88884021 81.81079102 4.18286133 C86.63919756 9.40744482 86.91838969 16.36417564 87.18333435 23.11103821 C87.21136251 23.79702644 87.23939067 24.48301467 87.26826817 25.18979043 C87.36104359 27.48462795 87.448094 29.77964619 87.53515625 32.07470703 C87.60068677 33.72528907 87.66656287 35.37585743 87.73275757 37.02641296 C87.91215268 41.52599829 88.08649196 46.02576684 88.25982547 50.52558923 C88.44447525 55.30037974 88.63331196 60.07500495 88.82154846 64.84965515 C89.13950832 72.9310761 89.45427907 81.01261648 89.76708984 89.09423828 C90.08303334 97.25614462 90.40187899 105.41792973 90.72412109 113.57958984 C92.27371148 152.83283558 93.80770113 192.08592037 95.03344727 231.35083008 C95.05454268 232.02213715 95.0756381 232.69344422 95.09737277 233.38509393 C95.23432216 237.74491617 95.36763585 242.10483591 95.49853516 246.46484375 C95.53095621 247.51854597 95.56337727 248.57224819 95.59678078 249.65788078 C95.67953596 252.49943132 95.75052412 255.34074971 95.81079102 258.18286133 C95.83081114 259.10925226 95.85083126 260.0356432 95.87145805 260.99010658 C95.88782657 262.31622994 95.88782657 262.31622994 95.90452576 263.66914368 C95.91548499 264.44585073 95.92644423 265.22255777 95.93773556 266.0228014 C95.72142603 269.70347598 94.69439817 272.00021476 92.81079102 275.18286133 C83.50152766 283.12311536 67.4986314 280.34092366 56.35601807 279.4974823 C55.10874939 279.39752457 53.86148071 279.29756683 52.57641602 279.19458008 C51.24510291 279.08958877 49.9137836 278.98467604 48.5824585 278.87983704 C45.81566212 278.6605723 43.04923088 278.43720535 40.28295898 278.21142578 C36.75824642 277.92453176 33.23252934 277.65296396 29.70633316 277.38501263 C26.30800869 277.1236027 22.91109336 276.84549302 19.51391602 276.56958008 C18.25855042 276.47569504 17.00318481 276.38181 15.70977783 276.28507996 C7.91482642 275.62637926 1.31937682 274.85243748 -5.06420898 269.99536133 C-9.55567482 264.05077419 -9.50518663 256.73804198 -9.66381836 249.55688477 C-9.72440358 247.60222116 -9.78542047 245.6475709 -9.84680176 243.69293213 C-9.87650558 242.65565224 -9.90620941 241.61837234 -9.93681335 240.54965973 C-10.57152353 219.04561668 -11.77163977 197.59377486 -13.28295898 176.13598633 C-13.33097027 175.45182207 -13.37898155 174.76765781 -13.42844772 174.06276131 C-14.06889197 164.93811682 -14.72304931 155.81448505 -15.38201904 146.69116211 C-16.24841333 134.69121164 -17.10191712 122.69032826 -17.95031142 110.68909287 C-18.04685717 109.32345709 -18.14348451 107.95782706 -18.24019456 106.5922029 C-19.44605705 89.55762986 -20.59114359 72.52395632 -21.45092773 55.46801758 C-21.50932831 54.31275196 -21.50932831 54.31275196 -21.56890869 53.13414764 C-23.57251904 12.86931762 -23.57251904 12.86931762 -16.87670898 4.18286133 C-11.60083734 0.25663127 -6.39703811 -0.10176309 0 0 Z M5.81079102 28.18286133 C6.31475734 38.24625765 6.83830235 48.30857266 7.37329102 58.37036133 C7.41510246 59.15742336 7.45691391 59.9444854 7.49999237 60.7553978 C8.67717529 82.84017796 10.02417002 104.90942058 11.56469727 126.97192383 C11.64124353 128.06878069 11.7177898 129.16563755 11.79665565 130.2957325 C12.55877362 141.19364066 13.33249916 152.09067058 14.12303638 162.98655415 C14.49400659 168.11032089 14.8597109 173.23445783 15.22485352 178.35864258 C15.33161187 179.84302983 15.33161187 179.84302983 15.44052696 181.35740471 C16.23943631 192.53477273 16.91556932 203.70563459 17.3605957 214.90307617 C17.40225294 215.93122909 17.44391018 216.959382 17.48682976 218.01869106 C17.68264945 222.92969052 17.85991764 227.84033499 18.00796509 232.75300598 C18.07130037 234.49420369 18.13495187 236.23538993 18.19897461 237.9765625 C18.21650661 238.76878645 18.23403862 239.5610104 18.2521019 240.37724113 C18.4059529 244.49394122 18.4059529 244.49394122 20.1166687 248.15725708 C23.16510249 250.00274758 26.69311129 249.91245364 30.17016602 250.13208008 C31.40407074 250.22559502 31.40407074 250.22559502 32.66290283 250.32099915 C35.29477495 250.51698266 37.92756695 250.69357838 40.56079102 250.87036133 C42.31869258 251.00001871 44.07650691 251.13086484 45.83422852 251.26293945 C49.0808398 251.50052305 52.32745026 251.73707107 55.57543945 251.95507812 C56.22591248 251.99932419 56.8763855 252.04357025 57.54656982 252.0891571 C60.6354013 252.21698762 63.71975623 252.196463 66.81079102 252.18286133 C66.13229009 214.17626653 64.56901208 176.19570083 63.1230135 138.212551 C62.8089456 129.95835116 62.49831231 121.70402373 62.1880188 113.44968128 C61.88715937 105.44692489 61.58481642 97.44422464 61.28221893 89.4415338 C61.18705699 86.92339236 61.09208189 84.40524392 60.99713135 81.8870945 C60.33399594 64.31585128 59.65220437 46.74668695 58.81079102 29.18286133 C55.42418909 28.42033474 52.3056853 28.06018351 48.83691406 28.06933594 C47.87629562 28.06941147 46.91567719 28.069487 45.9259491 28.06956482 C44.38974663 28.07730675 44.38974663 28.07730675 42.82250977 28.08520508 C41.76417435 28.08662003 40.70583893 28.08803497 39.61543274 28.0894928 C36.24302313 28.09507974 32.87068048 28.10762989 29.49829102 28.12036133 C27.20857843 28.12537801 24.91886481 28.12994063 22.62915039 28.1340332 C17.02300784 28.14504489 11.41690421 28.16177007 5.81079102 28.18286133 Z " fill="#000000" transform="translate(51.189208984375,201.817138671875)"/>
<path d="M0 0 C14.36466488 13.59914983 22.27263748 32.50011116 22.9609375 52.14892578 C23.22538661 75.08575421 15.21453481 94.31576872 -0.84375 110.75 C-16.50434971 125.65037643 -36.06350658 133.13920759 -57.5078125 133.359375 C-79.63861096 132.1714395 -99.11082512 123.52586791 -114.59765625 107.515625 C-126.12146286 94.50715619 -132.12597077 79.01506935 -131.9453125 61.671875 C-131.93628906 60.62386719 -131.92726562 59.57585937 -131.91796875 58.49609375 C-131.46253604 37.90041449 -123.2956731 19.55666135 -109.5078125 4.359375 C-106.02991032 1.0556167 -102.41285741 -1.85856266 -98.5078125 -4.640625 C-97.71890625 -5.20394531 -96.93 -5.76726563 -96.1171875 -6.34765625 C-67.5056283 -25.05885804 -25.48273892 -22.01117738 0 0 Z M-88.2578125 20.234375 C-95.28204951 27.98347185 -100.7884872 39.94479559 -101.5078125 50.359375 C-101.58773437 51.48601562 -101.66765625 52.61265625 -101.75 53.7734375 C-102.27749102 68.76038814 -98.63921601 83.45285569 -88.3359375 94.73828125 C-79.88256136 102.65239029 -70.12936025 106.97293856 -58.46875 106.66796875 C-44.33432924 105.1948563 -29.8546534 100.0698341 -20.4453125 88.9140625 C-10.5457609 75.22234395 -4.74114606 61.33312339 -7.16601562 44.23779297 C-9.05206002 33.90277941 -13.79639737 24.60362919 -22.1015625 17.9765625 C-31.41661156 11.71612369 -39.11929571 10.17127872 -50.1328125 9.671875 C-51.17566406 9.61193359 -52.21851563 9.55199219 -53.29296875 9.49023438 C-66.17705424 8.90313185 -78.24497631 11.54441922 -88.2578125 20.234375 Z " fill="#000000" transform="translate(131.5078125,47.640625)"/>
</svg>
